# xmcd
#
# Track frame offsets:
# 150
# 14261
# 27755
# 51211
# 71418
# 87685
# 108344
# 127081
# 141879
# 157225
# 173479
# 193583
# 221493
# 244597
# 262879
# 290435
# 305572
#
# Disc length: 4420 seconds
#
# Revision: 0
# Processed by: cddbd v1.4PL0 Copyright (c) Steve Scherf et al.
# Submitted via: Audion 3.0.2 (http://www.panic.com/audion/)
#
DISCID=f4114211
DTITLE=Various Artist - Shadazz2
DYEAR=1900
DGENRE=
TTITLE0=Pro Forma
TTITLE1=El Hombre Trajedo
TTITLE2=Mt.Florida
TTITLE3=Silver Locust
TTITLE4=Disco Doom
TTITLE5=Manchiron
TTITLE6=Torsten Alfred
TTITLE7=Caydness
TTITLE8=Devotone
TTITLE9=Phonseca
TTITLE10=Rude Pravo
TTITLE11=STT Vs SBB
TTITLE12=Hassle Hound
TTITLE13=OOSS
TTITLE14=Mendel
TTITLE15=Pica
TTITLE16=Painkillers
EXTD=
EXTT0=
EXTT1=
EXTT2=
EXTT3=
EXTT4=
EXTT5=
EXTT6=
EXTT7=
EXTT8=
EXTT9=
EXTT10=
EXTT11=
EXTT12=
EXTT13=
EXTT14=
EXTT15=
EXTT16=
PLAYORDER=
